<?xml version="1.0" standalone="no"?>
<!DOCTYPE svg PUBLIC "-//W3C//DTD SVG 20010904//EN"
 "http://www.w3.org/TR/2001/REC-SVG-20010904/DTD/svg10.dtd">
<svg version="1.0" xmlns="http://www.w3.org/2000/svg"
 width="688.000000pt" height="580.000000pt" viewBox="0 0 688.000000 580.000000"
 preserveAspectRatio="xMidYMid meet">

<g transform="translate(0.000000,580.000000) scale(0.100000,-0.100000)"
fill="#000000" stroke="none">
<path fill="#000000"  d="M0 2900 l0 -2900 3440 0 3440 0 0 2900 0 2900 -3440 0 -3440 0 0
-2900z m5166 1573 c-8 -50 -114 -330 -218 -578 -47 -110 -104 -245 -127 -300
-23 -56 -49 -108 -59 -115 -17 -15 -105 -83 -109 -85 -2 -1 17 -47 42 -102 73
-168 105 -334 105 -557 0 -371 -137 -704 -394 -962 -193 -192 -414 -308 -722
-376 -135 -30 -443 -32 -579 -4 -104 21 -263 70 -318 98 l-38 19 -52 -24 c-29
-14 -128 -59 -222 -100 -548 -242 -796 -352 -839 -374 -30 -15 -47 -20 -43
-11 3 7 42 94 87 193 84 185 220 500 220 508 0 3 -36 63 -79 134 -44 70 -78
129 -76 131 3 3 335 62 352 62 12 0 113 141 113 157 0 4 -18 49 -39 99 -72
165 -101 317 -101 520 0 345 112 617 355 859 270 270 616 415 995 415 139 0
258 -17 416 -60 65 -18 129 -32 141 -32 12 1 70 25 130 53 248 117 1042 467
1062 469 2 0 1 -17 -3 -37z"/>
<path d="M4455 3864 c-93 -46 -199 -96 -235 -111 -36 -14 -69 -30 -73 -33 -5
-4 18 -22 50 -40 95 -54 223 -170 223 -203 0 -4 -12 0 -26 10 -23 15 -28 15
-38 2 -13 -17 -47 -13 -59 7 -6 10 -29 14 -82 14 l-75 0 0 -30 c0 -27 3 -30
30 -30 18 0 30 -5 30 -13 0 -7 -13 -26 -30 -42 -16 -16 -30 -37 -30 -47 0 -10
-7 -18 -15 -18 -8 0 -15 -7 -15 -15 0 -8 -9 -15 -20 -15 -11 0 -20 6 -20 13 0
25 -20 -18 -20 -45 0 -14 -4 -28 -9 -30 -4 -1 -11 -13 -15 -25 -6 -18 -2 -22
24 -28 27 -6 50 -30 50 -52 0 -13 -58 -33 -62 -21 -2 5 -11 6 -21 2 -14 -5
-15 -9 -6 -20 6 -8 16 -14 22 -14 39 0 249 -124 417 -246 89 -65 225 -144 248
-144 11 0 12 22 7 113 -16 263 -81 446 -235 658 l-41 55 66 145 c36 79 84 177
106 217 22 39 36 72 32 71 -5 0 -84 -38 -178 -85z"/>
<path fill="" d="M3228 3929 c-43 -4 -88 -14 -100 -20 -22 -12 -22 -13 15 -21 20 -4
55 -17 76 -27 21 -11 41 -17 45 -14 3 4 6 1 6 -6 0 -16 -28 -25 -43 -13 -16
13 -43 8 -63 -12 -23 -23 -73 -48 -83 -41 -5 3 -15 -1 -23 -8 -7 -8 -40 -23
-73 -35 -50 -17 -62 -18 -75 -7 -9 8 -27 11 -43 8 -31 -6 -39 -15 -32 -35 4
-9 30 -13 100 -13 52 0 95 -4 95 -9 0 -5 20 -6 45 -4 25 3 45 2 45 -2 0 -4 21
3 47 16 25 13 52 24 60 24 7 0 13 4 13 8 0 17 -13 21 -31 9 -14 -9 -21 -9 -31
1 -10 10 -7 17 16 36 20 15 27 27 21 36 -6 10 -4 12 10 6 12 -4 32 2 56 19 21
14 45 25 53 25 8 0 17 4 20 9 3 5 16 9 28 9 45 2 63 7 71 20 4 6 19 12 31 12
37 0 40 27 4 34 -39 8 -162 6 -260 -5z"/>
<path d="M3587 3885 c5 -42 4 -45 -23 -56 -16 -7 -39 -11 -51 -10 -13 0 -23
-4 -23 -11 0 -6 -7 -19 -16 -29 -14 -15 -12 -18 30 -32 25 -9 54 -13 65 -10
15 4 21 1 21 -12 0 -12 -5 -15 -20 -10 -11 3 -20 2 -20 -3 0 -6 11 -13 24 -16
24 -6 43 -37 32 -54 -2 -4 -26 -18 -53 -30 -97 -46 -98 -46 -104 -82 -10 -62
-24 -78 -83 -90 -39 -8 -67 -23 -107 -57 -30 -25 -57 -53 -61 -62 -14 -33 -8
-63 17 -83 29 -22 31 -40 9 -62 -20 -21 -34 -20 -32 2 1 9 0 26 -1 37 -1 16
-3 17 -10 6 -13 -20 -2 -110 16 -140 l15 -23 34 33 c19 18 34 39 34 46 0 7 8
13 18 13 9 0 28 9 42 20 14 11 28 20 32 20 22 0 138 104 246 219 97 104 121
136 118 154 -3 12 -10 56 -17 97 -12 81 -26 115 -69 170 -15 19 -30 45 -34 57
-4 11 -13 26 -20 32 -11 9 -13 3 -9 -34z m-307 -646 c0 -5 -9 -9 -20 -9 -19 0
-27 20 -13 33 7 8 33 -11 33 -24z"/>
<path d="M2784 3774 c-18 -14 -18 -15 4 -4 12 6 22 13 22 15 0 8 -5 6 -26 -11z"/>
<path  d="M4105 3700 c3 -5 8 -10 11 -10 2 0 4 5 4 10 0 6 -5 10 -11 10 -5 0
-7 -4 -4 -10z"/>
<path d="M3047 3636 c-4 -10 -1 -13 9 -9 7 3 14 9 14 14 0 14 -17 10 -23 -5z"/>
<path fill="#" d="M3218 3561 c10 -6 10 -10 -3 -21 -9 -7 -14 -19 -11 -27 3 -7 -1 -13
-10 -13 -8 0 -12 -4 -9 -10 11 -17 32 -11 49 15 13 19 14 30 6 45 -6 11 -16
20 -23 20 -9 0 -9 -3 1 -9z"/>
<path fill="#" d="M2409 3412 c-24 -25 -44 -64 -44 -87 0 -13 -6 -19 -15 -17 -12 3 -12
1 -3 -9 9 -9 8 -19 -5 -45 -8 -19 -19 -34 -24 -34 -4 0 -17 -32 -29 -70 -16
-55 -20 -83 -14 -126 6 -52 10 -58 102 -152 67 -69 103 -114 122 -157 16 -33
67 -121 115 -195 68 -105 110 -156 184 -227 53 -51 99 -93 103 -93 4 0 36 14
72 30 50 24 86 33 159 39 62 5 103 14 121 25 32 22 36 40 5 30 -30 -9 -107 -6
-164 6 -66 15 -154 63 -199 110 -36 37 -37 39 -25 77 27 83 86 179 150 243 60
60 75 69 185 112 66 26 147 55 180 64 33 10 64 21 70 26 5 4 -47 8 -116 8
-121 0 -128 1 -188 31 -45 23 -60 34 -52 42 18 18 13 27 -14 27 -15 0 -28 7
-32 18 -3 9 -12 24 -20 33 -9 11 -11 23 -5 40 10 26 6 49 -9 49 -5 0 -9 -11
-9 -25 0 -32 -6 -31 -36 4 -19 22 -36 31 -76 36 -39 6 -47 10 -34 17 9 5 24 7
34 4 11 -3 24 4 35 19 15 21 16 29 6 47 -14 27 -14 28 1 38 9 5 9 13 2 25 -8
16 -11 14 -17 -13 -4 -22 -12 -32 -26 -32 -10 0 -19 -4 -19 -9 0 -6 -15 -7
-33 -4 -29 4 -39 0 -65 -28 -35 -37 -32 -47 16 -51 36 -3 36 -2 21 -30 l-11
-21 -18 23 c-14 19 -23 22 -52 16 -39 -7 -73 -37 -65 -58 9 -26 -13 -48 -48
-48 -18 0 -36 -4 -39 -8 -3 -5 8 -7 23 -4 16 2 32 -1 35 -7 4 -6 18 -11 32
-11 41 0 27 -46 -20 -65 -26 -11 -35 -11 -59 2 -19 10 -27 19 -23 30 5 13 1
14 -24 10 -17 -4 -30 -2 -30 3 0 6 5 10 10 10 6 0 10 5 10 10 0 5 -6 9 -12 8
-7 -2 -13 4 -13 12 0 8 13 18 30 21 17 4 23 7 13 8 -9 0 -18 7 -21 14 -3 8 -8
9 -16 1 -6 -6 -25 -8 -42 -6 -23 3 -29 8 -24 20 3 9 8 34 12 57 l5 40 -47 -3
c-26 -3 -46 0 -43 4 37 77 49 108 44 121 -4 9 -1 22 5 29 16 20 -3 16 -22 -4z
m161 -388 c0 -16 -16 -19 -25 -4 -8 13 4 32 16 25 5 -4 9 -13 9 -21z m40 -104
c0 -5 9 -10 20 -10 11 0 20 -5 20 -11 0 -6 -7 -8 -16 -5 -9 3 -27 6 -40 6 -15
0 -24 6 -24 15 0 8 9 15 20 15 11 0 20 -4 20 -10z"/>
<path fill="#" d="M3096 3211 c-7 -11 22 -23 35 -15 5 3 9 9 9 15 0 12 -37 12 -44 0z"/>
<path d="M3060 3186 c0 -8 5 -18 10 -21 6 -3 10 3 10 14 0 12 -4 21 -10 21 -5
0 -10 -6 -10 -14z"/>
<path fill="#" d="M3626 3011 c-3 -5 0 -11 7 -13 17 -7 38 2 31 13 -7 12 -31 12 -38 0z"/>
<path fill="#" d="M3605 2979 c-4 -6 -5 -12 -2 -15 2 -3 7 2 10 11 7 17 1 20 -8 4z"/>
<path fill="#" d="M3943 2960 c-3 -11 -11 -20 -17 -20 -7 0 -23 -11 -36 -25 -16 -17
-34 -25 -56 -25 -18 0 -36 -5 -39 -11 -13 -19 -58 -31 -67 -17 -6 10 -8 10 -8
-1 0 -9 -9 -12 -30 -9 -37 6 -41 -17 -5 -26 14 -4 25 -11 25 -16 0 -12 60 -13
75 -2 6 4 15 16 21 27 12 23 74 34 74 14 0 -19 36 18 50 52 15 34 15 34 39 10
13 -13 16 -22 9 -29 -6 -6 -6 -12 0 -16 17 -10 42 5 42 25 0 10 9 24 20 31 11
7 20 16 20 19 0 11 -50 28 -65 23 -14 -6 -14 -8 1 -19 16 -11 16 -12 0 -18
-25 -10 -39 2 -33 29 5 29 -13 32 -20 4z"/>
<path fill="#" d="M4069 2948 c-5 -13 -17 -35 -25 -51 -18 -31 -10 -54 12 -36 8 6 14
20 14 31 0 10 11 30 24 43 19 19 21 25 9 29 -21 9 -23 8 -34 -16z"/>
<path fill="#" d="M3600 2835 c-8 -9 -8 -15 -2 -15 12 0 26 19 19 26 -2 2 -10 -2 -17
-11z"/>
<path fill="#" d="M3556 2814 c-3 -9 -6 -32 -6 -52 0 -33 1 -35 14 -16 12 15 17 16 27
7 9 -9 6 -15 -14 -24 -23 -10 -27 -18 -27 -56 0 -23 3 -43 8 -42 4 0 34 31 67
69 53 59 62 66 76 54 14 -12 15 -11 11 15 -2 16 -9 32 -16 34 -15 6 -56 -10
-56 -21 0 -5 -11 -9 -24 -9 -17 0 -23 4 -19 14 3 8 0 13 -8 11 -9 -2 -13 4
-11 15 4 21 -14 23 -22 1z"/>
<path d="M4185 2791 c-3 -5 -1 -12 4 -15 5 -3 11 1 15 9 6 16 -9 21 -19 6z"/>
<path d="M3781 2787 c2 -2 16 -10 30 -20 26 -15 27 -15 22 3 -4 13 -14 20 -31
20 -14 0 -23 -1 -21 -3z"/>
<path d="M3933 2763 c-46 -67 -88 -101 -136 -108 -43 -7 -50 -5 -82 24 -20 17
-40 31 -45 31 -6 0 -35 -26 -65 -57 -50 -53 -54 -61 -48 -93 11 -65 45 -142
80 -180 39 -44 146 -99 184 -95 21 2 25 -1 25 -24 -1 -23 4 -27 41 -35 39 -9
42 -12 42 -45 0 -20 2 -45 3 -56 2 -14 -4 -21 -19 -23 -13 -2 -23 -8 -23 -14
0 -28 -46 -108 -62 -108 -10 0 -18 -4 -18 -10 0 -5 -6 -10 -14 -10 -7 0 -16
-9 -19 -21 -5 -18 -12 -20 -64 -17 -55 3 -58 4 -61 31 -2 15 -9 27 -18 27 -8
0 -14 7 -14 15 0 12 -13 15 -55 15 -42 0 -55 3 -55 15 0 8 -9 15 -20 15 -11 0
-20 -4 -20 -10 0 -5 5 -10 11 -10 8 0 10 -15 5 -49 -6 -42 -4 -50 11 -53 10
-3 -4 -4 -32 -5 -27 0 -62 -2 -77 -5 -15 -3 -25 -1 -22 3 3 5 -8 9 -25 9 -25
0 -30 -5 -36 -30 -6 -27 -35 -44 -35 -21 0 5 -9 7 -21 4 -42 -11 -1 -25 55
-18 44 6 54 10 46 20 -14 17 116 33 133 16 8 -8 5 -11 -11 -11 -17 0 -22 -6
-22 -25 0 -16 -6 -25 -15 -25 -8 0 -15 -7 -15 -15 0 -12 -13 -15 -60 -15 -47
0 -60 3 -60 15 0 10 -10 15 -34 15 -18 0 -48 3 -66 6 -30 7 -32 6 -21 -13 8
-17 23 -21 78 -25 39 -2 68 -9 71 -16 2 -7 10 -12 18 -12 8 0 14 -7 14 -15 0
-10 -10 -15 -29 -15 -16 0 -32 -6 -34 -12 -3 -7 -6 -1 -6 15 -1 22 -6 27 -26
27 -16 0 -25 -6 -25 -15 0 -10 -10 -15 -30 -15 -16 0 -30 -4 -30 -10 0 -5 14
-10 30 -10 23 0 30 -5 30 -19 0 -15 -5 -18 -21 -14 -14 4 -27 0 -35 -11 -10
-14 -29 -18 -83 -20 -39 0 -71 -5 -71 -10 0 -4 -7 -6 -15 -2 -8 3 -14 2 -14
-2 4 -26 -1 -34 -16 -22 -11 9 -15 9 -15 1 0 -9 -6 -8 -22 1 -13 6 -31 13 -41
15 -11 2 -28 9 -39 17 -19 14 -58 11 -58 -4 0 -5 10 -12 23 -15 12 -4 36 -13
52 -19 301 -123 672 -139 971 -41 433 141 745 488 819 910 26 149 27 146 -58
173 -40 13 -101 41 -135 63 -69 43 -88 47 -96 22 -11 -34 -97 -113 -123 -113
-15 0 -23 5 -21 12 5 15 -26 42 -59 52 -16 5 -23 3 -23 -6 -1 -8 -9 -4 -20 10
-10 12 -21 18 -24 13 -4 -5 -2 -12 4 -16 14 -9 12 -21 -6 -39 -14 -15 -13 -16
8 -16 13 0 37 4 55 9 38 11 46 5 32 -21 -9 -16 -6 -25 17 -49 23 -24 25 -31
14 -44 -18 -21 -29 -19 -42 10 -14 31 -25 31 -47 4 -17 -21 -63 -33 -128 -33
-25 0 -33 -4 -33 -18 0 -22 -47 -25 -76 -4 -19 14 -18 15 6 66 l26 51 27 -21
c23 -18 32 -20 69 -12 39 9 40 10 11 11 -27 1 -30 4 -26 22 4 15 0 27 -12 35
-11 8 -14 14 -9 14 11 0 38 50 31 56 -2 2 -12 -5 -22 -16 -18 -20 -45 -27 -45
-12 0 4 11 26 25 50 22 38 22 42 6 42 -10 0 -21 -9 -24 -20 -8 -29 -25 -25
-19 5 6 32 -3 32 -25 -2z m-8 -83 c3 -5 -3 -10 -15 -10 -12 0 -18 5 -15 10 3
6 10 10 15 10 5 0 12 -4 15 -10z m-24 -707 c-8 -14 -10 -7 -6 27 4 33 3 40 -4
25 -5 -11 -10 -14 -10 -7 -1 7 5 21 12 32 11 19 12 17 15 -20 2 -22 -2 -48 -7
-57z m-364 1 c-3 -3 -12 -4 -19 -1 -8 3 -5 6 6 6 11 1 17 -2 13 -5z m68 -49
c0 -27 -4 -30 -37 -36 -28 -4 -38 -2 -38 8 0 7 8 14 18 14 16 1 16 2 0 6 -10
2 -18 13 -18 24 0 17 6 20 38 17 34 -3 37 -6 37 -33z m-67 -77 c-6 -18 -28
-21 -28 -4 0 9 7 16 16 16 9 0 14 -5 12 -12z"/>
<path fill="#" d="M4230 2748 c0 -9 -7 -24 -16 -33 -15 -14 -13 -15 15 -13 32 2 44 18
14 18 -15 0 -16 2 -3 10 12 7 12 12 2 22 -9 9 -12 9 -12 -4z"/>
<path fill="#" d="M4090 2601 c0 -6 4 -13 10 -16 6 -3 7 1 4 9 -7 18 -14 21 -14 7z"/>
<path d="M3950 2520 c0 -5 7 -10 15 -10 8 0 15 5 15 10 0 6 -7 10 -15 10 -8 0
-15 -4 -15 -10z"/>
<path   d="M2363 2009 c-11 -19 -46 -86 -78 -149 -68 -134 -153 -291 -166 -304
-25 -27 1 -20 104 28 96 46 190 87 345 153 l34 14 -44 47 c-101 112 -106 117
-149 197 l-26 48 -20 -34z"/>
<path fill="#000000" d="M3730 1985 c0 -18 5 -25 20 -25 15 0 20 7 20 25 0 18 -5 25 -20 25
-15 0 -20 -7 -20 -25z"/>
</g>
</svg>
